<?xml version="1.0" encoding="utf-8"?>
<!-- Generator: Avocode 2.4.3-3630f5a - http://avocode.com -->
<svg height="112" width="76" xmlns:xlink="http://www.w3.org/1999/xlink" xmlns="http://www.w3.org/2000/svg" viewBox="0 0 76 112">
    <path fill="#333333" fill-rule="evenodd" d="M 65.64 0.5 L 10.36 0.5 C 4.64 0.5 0 5.16 0 10.91 L 0 101.09 C 0 106.84 4.64 111.5 10.36 111.5 L 65.64 111.5 C 71.36 111.5 76 106.84 76 101.09 L 76 10.91 C 76 5.16 71.36 0.5 65.64 0.5 L 65.64 0.5 Z M 69.09 101.09 C 69.09 103.01 67.54 104.56 65.64 104.56 L 10.36 104.56 C 8.46 104.56 6.91 103.01 6.91 101.09 L 6.91 94.14 L 69.09 94.14 L 69.09 101.09 L 69.09 101.09 Z M 69.09 90.67 L 6.91 90.67 L 6.91 21.31 L 69.09 21.31 L 69.09 90.67 L 69.09 90.67 Z M 69.09 17.84 L 6.91 17.84 L 6.91 10.91 C 6.91 8.99 8.46 7.44 10.36 7.44 L 65.64 7.44 C 67.54 7.44 69.09 8.99 69.09 10.91 L 69.09 17.84 L 69.09 17.84 Z M 69.09 17.84" />
    <path fill="#333333" fill-rule="evenodd" d="M 44.91 12.64 C 44.91 13.6 44.13 14.38 43.18 14.38 L 32.82 14.38 C 31.86 14.38 31.09 13.6 31.09 12.64 L 31.09 12.64 C 31.09 11.68 31.86 10.91 32.82 10.91 L 43.18 10.91 C 44.13 10.91 44.91 11.68 44.91 12.64 L 44.91 12.64 L 44.91 12.64 Z M 44.91 12.64" />
    <path fill="#333333" fill-rule="evenodd" d="M 41.45 99.35 C 41.45 100.3 40.68 101.08 39.73 101.08 L 36.27 101.08 C 35.32 101.08 34.55 100.3 34.55 99.35 L 34.55 99.35 C 34.55 98.38 35.32 97.61 36.27 97.61 L 39.73 97.61 C 40.68 97.61 41.45 98.38 41.45 99.35 L 41.45 99.35 L 41.45 99.35 Z M 41.45 99.35" />
</svg>